<svg xmlns="http://www.w3.org/2000/svg" viewBox="0 0 300 292"><path fill="#fff" d="M158.31 164.35a.99.98-1.3 0 1-.94-.89q-3.57-34.67-3.62-69.71c-.03-23.54 2.45-50.8 9.3-74.93q2.65-9.32 7.47-17.68a1.01 1 18.4 0 1 .99-.49q13.15 1.59 19.42 4.37c17.31 7.68 26.94 23.68 25.35 42.49-1.36 15.98-7.38 30.67-14.45 44.88q-18.24 36.6-41.52 70.23-.03.04-.48.9-.47.89-1.52.83ZM83.93 33.82C89.14 11.77 107.12 2.92 127.94.7a1.01 1-18.6 0 1 .97.48c7.83 13.11 11.34 30.51 13.3 45.55 4.94 37.73 3.81 77.67-.17 116.09q-.38 3.67-2.47.63c-19.04-27.64-36.93-56.99-49.63-88.13-5.17-12.7-9.08-28.48-6.01-41.5ZM71.05 139.96c-26.42-16.29-58.2-37.78-41.31-74.48q6.23-13.52 18.27-25.51a1 1 0 0 1 1.49.09q48.25 61.5 80.23 130.22.52 1.13-.52 1.62a1.01.99 45.3 0 1-.86-.01q-27.21-13.37-57.3-31.93ZM251.33 39.93q10.93 10.41 17.43 23.82c16.21 33.48-5.74 53.5-31.58 70.43q-31.48 20.62-65.25 37.24c-1.85.91-2.77-.18-1.93-1.96q32.65-69.15 79.86-129.42a.99.99 0 0 1 1.47-.11Zm-73.64 142.63c-1.53-.04-.86-1.74.02-2.31q24.35-15.79 49.47-30.33 31.94-18.49 64.53-36.11a1 1 0 0 1 1.44.64q6.76 26.67-8.43 46.93c-10.85 14.47-25.64 21.06-43.9 21.26q-41.53.45-63.13-.08Zm-56.86-2.69c.96.63 2.8 1.28 1.23 2.64a1 1 0 0 1-.65.24H60.65q-9.52.01-15.09-1.3c-19.34-4.52-34.45-18.87-39.56-38q-3.77-14.09.3-28.77a1 .99-68.3 0 1 1.43-.62q33.99 18.25 67.37 37.56 23.28 13.46 45.73 28.25Zm-.52 9.62q.95-.03.99.81a.82.81 71 0 1-.32.67Q98 208.4 77.75 217.78c-11.6 5.38-25.79-.38-34.97-9.3q-6.65-6.46-11.22-14.5a1 1 0 0 1 .83-1.49q43.98-1.96 87.92-3Zm132.26 2.38q7.32.26 14.66.54a1 1 0 0 1 .82 1.51q-3.01 5.03-6.72 9.64c-7.91 9.82-21.09 18.44-34.18 15.91q-5.2-1.01-15.27-6.64-17.29-9.65-33.14-21.59c-1.48-1.12-.26-1.88.89-1.84q36.47 1.14 72.94 2.47Zm-213.82 71.2v-18.16a.41.41 0 0 1 .41-.41h9.69a.41.41 0 0 1 .41.41v46.18a.41.41 0 0 1-.41.41h-9.73a.41.41 0 0 1-.41-.41l.06-18.68a.41.41 0 0 0-.41-.41H15.09a.41.41 0 0 0-.41.42l.27 18.66a.41.41 0 0 1-.41.42H4.66a.41.41 0 0 1-.41-.41v-46.13a.41.41 0 0 1 .41-.41l9.97-.04a.41.41 0 0 1 .41.41l-.13 18.2a.41.41 0 0 0 .41.41l23.02-.05a.41.41 0 0 0 .41-.41ZM83.44 292h-6.75c-12.78-1.64-18.54-5.08-18.44-18.66q.09-13.91-.13-27.78a1 1 0 0 1 .99-1.02l8.63-.03a1.01 1.01 0 0 1 1.01 1.01q-.03 14.65-.01 29.22c.02 8.71 6.53 9.75 13.47 9.42 7.86-.38 9.16-5.06 9.18-11.66q.03-13.48.17-26.95a1.01 1 .3 0 1 1.01-.99l8.66.05a.99.99 0 0 1 .99.99q.06 13.73.02 27.36c-.03 12.64-5.76 18.19-18.8 19.04Zm53.69-47.15 21.31 46.07a.41.41 0 0 1-.37.58H147a.41.41 0 0 1-.38-.25l-4.47-10.75a.41.41 0 0 0-.38-.25h-21.35a.41.41 0 0 0-.38.26l-4.34 10.73a.41.41 0 0 1-.38.26h-10.47a.41.41 0 0 1-.37-.58l21.13-46.19a.41.41 0 0 1 .38-.24l10.77.12a.41.41 0 0 1 .37.24Zm-13.4 26.76a.32.32 0 0 0 .29.44l14.16-.1a.32.32 0 0 0 .29-.45l-7.19-16.71a.32.32 0 0 0-.59 0l-6.96 16.82Zm66.89-12.29-8.47 31.44a1 .99-82.4 0 1-.96.74h-11.58a1 1 0 0 1-.94-.66L152.49 246a.99.99 0 0 1 .92-1.33l9.35-.17a.98.98 0 0 1 .96.69l10.64 32.94q.83 2.55 1.53-.03l8.99-32.83a1.01.99 7.5 0 1 .97-.73l11.1.02a1.01 1-8.6 0 1 .96.7l10.16 32.3q.98 3.09 1.92-.01l9.77-32.29a1.01 1-81.4 0 1 .96-.71l8.84.02a1 1 0 0 1 .95 1.32l-14.99 44.91a1 1 0 0 1-.95.68h-11.69a1 .99 81.2 0 1-.95-.7l-9.78-31.49q-.82-2.64-1.53.03Zm54.68 13.46c.02 9.26 6.09 10.47 14.19 10.46q7.11-.02 14.24.07a1 1 0 0 1 .99.98l.13 6.02a1 1 0 0 1-.95 1.02q-10.33.56-20.56-.12c-16.6-1.1-21.93-13.12-19.79-28.31 3.07-21.86 23.98-18.06 40.16-18.5a1 .99 89.2 0 1 1.02 1l.02 6.33a1 .99 90 0 1-1 1.01q-14.62-.11-17.82.12-9.62.68-10.46 9.8a1 1 0 0 0 1 1.09h27.28a1 1 0 0 1 1 1v5.99a1 1 0 0 1-1 1l-27.45.04a1 1 0 0 0-1 1Z"/><rect width="11.06" height="46.94" x="284.24" y="244.55" fill="#fff" rx=".49"/></svg>